<svg width="145" height="218" viewBox="0 0 145 218" fill="none" xmlns="http://www.w3.org/2000/svg">
<path d="M73.813 217.545C55.4097 207.582 7.88214e-06 168.758 1.05128e-05 108.576C1.31434e-05 48.3948 28.9725 4.71568e-06 73.813 6.67572e-06C118.654 8.63576e-06 145 48.3948 145 108.576C145 168.758 90.0512 208.827 73.813 217.545Z" fill="#63C600"/>
<path d="M122.015 59C122.015 81.544 100.255 100.5 72.5 100.5C44.745 100.5 22.9848 81.544 22.9848 59C22.9848 36.456 44.745 17.5 72.5 17.5C100.255 17.5 122.015 36.456 122.015 59Z" fill="#EBEBEB" stroke="#004B23" stroke-width="5"/>
<circle cx="73.8131" cy="152.653" r="14" fill="#006400"/>
<circle cx="73.8131" cy="152.653" r="7" fill="#CCFF33"/>
<path d="M91.0944 166.653L91.0944 159.035C94.3046 158.585 97.1248 157.797 99.555 156.67C101.985 155.565 104.025 154.213 105.675 152.616C107.356 151.039 108.616 149.288 109.456 147.363C110.296 145.439 110.716 143.432 110.716 141.343C110.716 137.535 109.306 134.084 106.485 130.992C103.665 127.921 99.51 125.474 94.0196 123.651C88.5292 121.849 81.7937 120.948 73.8131 120.948C65.8325 120.948 59.097 121.849 53.6066 123.651C48.1162 125.474 43.9609 127.921 41.1407 130.992C38.3205 134.084 36.9104 137.535 36.9104 141.343C36.9104 143.432 37.3305 145.439 38.1705 147.363C39.0106 149.288 40.2557 151.039 41.9058 152.616C43.5859 154.213 45.6411 155.565 48.0712 156.67C50.5314 157.797 53.3516 158.585 56.5319 159.035L56.5319 166.653C51.8215 166.079 47.6062 165.035 43.8859 163.52C40.1657 162.005 37.0004 160.121 34.3902 157.868C31.8101 155.616 29.8449 153.087 28.4948 150.281C27.1447 147.497 26.4697 144.517 26.4697 141.343C26.4697 135.978 28.3898 131.207 32.2301 127.03C36.0704 122.852 41.5308 119.566 48.6113 117.17C55.6918 114.774 64.0924 113.576 73.8131 113.576C83.5338 113.576 91.9344 114.774 99.015 117.17C106.095 119.566 111.556 122.852 115.396 127.03C119.236 131.207 121.157 135.978 121.157 141.343C121.157 144.517 120.482 147.497 119.131 150.281C117.781 153.087 115.801 155.616 113.191 157.868C110.611 160.121 107.461 162.005 103.74 163.52C100.05 165.035 95.8347 166.079 91.0944 166.653Z" fill="#004B23"/>
</svg>
