<svg width="247" height="37" viewBox="0 0 247 37" fill="none" xmlns="http://www.w3.org/2000/svg">
<path d="M26.0909 12C25.7159 10.8523 25.2216 9.82386 24.608 8.91477C24.0057 7.99432 23.2841 7.21023 22.4432 6.5625C21.6136 5.91477 20.6705 5.42045 19.6136 5.07954C18.5568 4.73864 17.3977 4.56818 16.1364 4.56818C14.0682 4.56818 12.1875 5.10227 10.4943 6.17045C8.80114 7.23864 7.45455 8.8125 6.45455 10.892C5.45455 12.9716 4.95455 15.5227 4.95455 18.5455C4.95455 21.5682 5.46023 24.1193 6.47159 26.1989C7.48295 28.2784 8.85227 29.8523 10.5795 30.9205C12.3068 31.9886 14.25 32.5227 16.4091 32.5227C18.4091 32.5227 20.1705 32.0966 21.6932 31.2443C23.2273 30.3807 24.4205 29.1648 25.2727 27.5966C26.1364 26.017 26.5682 24.1591 26.5682 22.0227L27.8636 22.2955H17.3636V18.5455H30.6591V22.2955C30.6591 25.1705 30.0455 27.6705 28.8182 29.7955C27.6023 31.9205 25.9205 33.5682 23.7727 34.7386C21.6364 35.8977 19.1818 36.4773 16.4091 36.4773C13.3182 36.4773 10.6023 35.75 8.26136 34.2955C5.93182 32.8409 4.11364 30.7727 2.80682 28.0909C1.51136 25.4091 0.863636 22.2273 0.863636 18.5455C0.863636 15.7841 1.23295 13.3011 1.97159 11.0966C2.72159 8.88068 3.77841 6.99432 5.14205 5.4375C6.50568 3.88068 8.11932 2.6875 9.98295 1.85795C11.8466 1.02841 13.8977 0.613635 16.1364 0.613635C17.9773 0.613635 19.6932 0.892044 21.2841 1.44886C22.8864 1.99432 24.3125 2.77273 25.5625 3.78409C26.8239 4.78409 27.875 5.98295 28.7159 7.38068C29.5568 8.76705 30.1364 10.3068 30.4545 12H26.0909ZM37.3537 36V9.81818H41.2401V13.7727H41.5128C41.9901 12.4773 42.8537 11.4261 44.1037 10.6193C45.3537 9.8125 46.7628 9.40909 48.331 9.40909C48.6264 9.40909 48.9957 9.41477 49.4389 9.42614C49.8821 9.4375 50.2173 9.45455 50.4446 9.47727V13.5682C50.3082 13.5341 49.9957 13.483 49.5071 13.4148C49.0298 13.3352 48.5241 13.2955 47.9901 13.2955C46.7173 13.2955 45.581 13.5625 44.581 14.0966C43.5923 14.6193 42.8082 15.3466 42.2287 16.2784C41.6605 17.1989 41.3764 18.25 41.3764 19.4318V36H37.3537ZM65.3935 36.5455C62.8707 36.5455 60.6946 35.9886 58.8651 34.875C57.0469 33.75 55.6435 32.1818 54.6548 30.1705C53.6776 28.1477 53.1889 25.7955 53.1889 23.1136C53.1889 20.4318 53.6776 18.0682 54.6548 16.0227C55.6435 13.9659 57.0185 12.3636 58.7798 11.2159C60.5526 10.0568 62.6207 9.47727 64.9844 9.47727C66.348 9.47727 67.6946 9.70455 69.0241 10.1591C70.3537 10.6136 71.5639 11.3523 72.6548 12.375C73.7457 13.3864 74.6151 14.7273 75.2628 16.3977C75.9105 18.0682 76.2344 20.125 76.2344 22.5682V24.2727H56.0526V20.7955H72.1435C72.1435 19.3182 71.848 18 71.2571 16.8409C70.6776 15.6818 69.848 14.767 68.7685 14.0966C67.7003 13.4261 66.4389 13.0909 64.9844 13.0909C63.3821 13.0909 61.9957 13.4886 60.8253 14.2841C59.6662 15.0682 58.7741 16.0909 58.1491 17.3523C57.5241 18.6136 57.2116 19.9659 57.2116 21.4091V23.7273C57.2116 25.7045 57.5526 27.3807 58.2344 28.7557C58.9276 30.1193 59.8878 31.1591 61.1151 31.875C62.3423 32.5795 63.7685 32.9318 65.3935 32.9318C66.4503 32.9318 67.4048 32.7841 68.2571 32.4886C69.1207 32.1818 69.8651 31.7273 70.4901 31.125C71.1151 30.5114 71.598 29.75 71.9389 28.8409L75.8253 29.9318C75.4162 31.25 74.7287 32.4091 73.7628 33.4091C72.7969 34.3977 71.6037 35.1705 70.1832 35.7273C68.7628 36.2727 67.1662 36.5455 65.3935 36.5455ZM93.331 36.5455C90.8082 36.5455 88.6321 35.9886 86.8026 34.875C84.9844 33.75 83.581 32.1818 82.5923 30.1705C81.6151 28.1477 81.1264 25.7955 81.1264 23.1136C81.1264 20.4318 81.6151 18.0682 82.5923 16.0227C83.581 13.9659 84.956 12.3636 86.7173 11.2159C88.4901 10.0568 90.5582 9.47727 92.9219 9.47727C94.2855 9.47727 95.6321 9.70455 96.9616 10.1591C98.2912 10.6136 99.5014 11.3523 100.592 12.375C101.683 13.3864 102.553 14.7273 103.2 16.3977C103.848 18.0682 104.172 20.125 104.172 22.5682V24.2727H83.9901V20.7955H100.081C100.081 19.3182 99.7855 18 99.1946 16.8409C98.6151 15.6818 97.7855 14.767 96.706 14.0966C95.6378 13.4261 94.3764 13.0909 92.9219 13.0909C91.3196 13.0909 89.9332 13.4886 88.7628 14.2841C87.6037 15.0682 86.7116 16.0909 86.0866 17.3523C85.4616 18.6136 85.1491 19.9659 85.1491 21.4091V23.7273C85.1491 25.7045 85.4901 27.3807 86.1719 28.7557C86.8651 30.1193 87.8253 31.1591 89.0526 31.875C90.2798 32.5795 91.706 32.9318 93.331 32.9318C94.3878 32.9318 95.3423 32.7841 96.1946 32.4886C97.0582 32.1818 97.8026 31.7273 98.4276 31.125C99.0526 30.5114 99.5355 29.75 99.8764 28.8409L103.763 29.9318C103.354 31.25 102.666 32.4091 101.7 33.4091C100.734 34.3977 99.5412 35.1705 98.1207 35.7273C96.7003 36.2727 95.1037 36.5455 93.331 36.5455ZM114.314 20.25V36H110.291V9.81818H114.178V13.9091H114.518C115.132 12.5795 116.064 11.5114 117.314 10.7045C118.564 9.88636 120.178 9.47727 122.155 9.47727C123.928 9.47727 125.479 9.84091 126.808 10.5682C128.138 11.2841 129.172 12.375 129.911 13.8409C130.649 15.2955 131.018 17.1364 131.018 19.3636V36H126.996V19.6364C126.996 17.5795 126.462 15.9773 125.393 14.8295C124.325 13.6705 122.859 13.0909 120.996 13.0909C119.712 13.0909 118.564 13.3693 117.553 13.9261C116.553 14.483 115.763 15.2955 115.183 16.3636C114.604 17.4318 114.314 18.7273 114.314 20.25ZM162.778 12C162.403 10.8523 161.909 9.82386 161.295 8.91477C160.693 7.99432 159.972 7.21023 159.131 6.5625C158.301 5.91477 157.358 5.42045 156.301 5.07954C155.244 4.73864 154.085 4.56818 152.824 4.56818C150.756 4.56818 148.875 5.10227 147.182 6.17045C145.489 7.23864 144.142 8.8125 143.142 10.892C142.142 12.9716 141.642 15.5227 141.642 18.5455C141.642 21.5682 142.148 24.1193 143.159 26.1989C144.17 28.2784 145.54 29.8523 147.267 30.9205C148.994 31.9886 150.938 32.5227 153.097 32.5227C155.097 32.5227 156.858 32.0966 158.381 31.2443C159.915 30.3807 161.108 29.1648 161.96 27.5966C162.824 26.017 163.256 24.1591 163.256 22.0227L164.551 22.2955H154.051V18.5455H167.347V22.2955C167.347 25.1705 166.733 27.6705 165.506 29.7955C164.29 31.9205 162.608 33.5682 160.46 34.7386C158.324 35.8977 155.869 36.4773 153.097 36.4773C150.006 36.4773 147.29 35.75 144.949 34.2955C142.619 32.8409 140.801 30.7727 139.494 28.0909C138.199 25.4091 137.551 22.2273 137.551 18.5455C137.551 15.7841 137.92 13.3011 138.659 11.0966C139.409 8.88068 140.466 6.99432 141.83 5.4375C143.193 3.88068 144.807 2.6875 146.67 1.85795C148.534 1.02841 150.585 0.613635 152.824 0.613635C154.665 0.613635 156.381 0.892044 157.972 1.44886C159.574 1.99432 161 2.77273 162.25 3.78409C163.511 4.78409 164.563 5.98295 165.403 7.38068C166.244 8.76705 166.824 10.3068 167.142 12H162.778ZM178.064 1.09091V36H174.041V1.09091H178.064ZM196.068 36.5455C193.705 36.5455 191.631 35.983 189.847 34.858C188.074 33.733 186.688 32.1591 185.688 30.1364C184.699 28.1136 184.205 25.75 184.205 23.0455C184.205 20.3182 184.699 17.9375 185.688 15.9034C186.688 13.8693 188.074 12.2898 189.847 11.1648C191.631 10.0398 193.705 9.47727 196.068 9.47727C198.432 9.47727 200.5 10.0398 202.273 11.1648C204.057 12.2898 205.443 13.8693 206.432 15.9034C207.432 17.9375 207.932 20.3182 207.932 23.0455C207.932 25.75 207.432 28.1136 206.432 30.1364C205.443 32.1591 204.057 33.733 202.273 34.858C200.5 35.983 198.432 36.5455 196.068 36.5455ZM196.068 32.9318C197.864 32.9318 199.341 32.4716 200.5 31.5511C201.659 30.6307 202.517 29.4205 203.074 27.9205C203.631 26.4205 203.909 24.7955 203.909 23.0455C203.909 21.2955 203.631 19.6648 203.074 18.1534C202.517 16.642 201.659 15.4205 200.5 14.4886C199.341 13.5568 197.864 13.0909 196.068 13.0909C194.273 13.0909 192.795 13.5568 191.636 14.4886C190.477 15.4205 189.619 16.642 189.062 18.1534C188.506 19.6648 188.227 21.2955 188.227 23.0455C188.227 24.7955 188.506 26.4205 189.062 27.9205C189.619 29.4205 190.477 30.6307 191.636 31.5511C192.795 32.4716 194.273 32.9318 196.068 32.9318ZM219.114 36L211.136 9.81818H215.364L221.023 29.8636H221.295L226.886 9.81818H231.182L236.705 29.7955H236.977L242.636 9.81818H246.864L238.886 36H234.932L229.205 15.8864H228.795L223.068 36H219.114Z" fill="#63C600"/>
<path d="M26.0909 12L25.6156 12.1553L25.7283 12.5H26.0909V12ZM24.608 8.91477L24.1895 9.18856L24.1935 9.19451L24.608 8.91477ZM22.4432 6.5625L22.1355 6.9566L22.1381 6.95861L22.4432 6.5625ZM19.6136 5.07954L19.7671 4.60369L19.7671 4.60369L19.6136 5.07954ZM6.45455 10.892L6.90515 11.1087L6.90515 11.1087L6.45455 10.892ZM6.47159 26.1989L6.02195 26.4175L6.02195 26.4175L6.47159 26.1989ZM21.6932 31.2443L21.9374 31.6806L21.9385 31.68L21.6932 31.2443ZM25.2727 27.5966L24.834 27.3567L24.8334 27.3578L25.2727 27.5966ZM26.5682 22.0227L26.6712 21.5335L26.0682 21.4065V22.0227H26.5682ZM27.8636 22.2955V22.7955L27.9666 21.8062L27.8636 22.2955ZM17.3636 22.2955H16.8636V22.7955H17.3636V22.2955ZM17.3636 18.5455V18.0455H16.8636V18.5455H17.3636ZM30.6591 18.5455H31.1591V18.0455H30.6591V18.5455ZM28.8182 29.7955L28.3852 29.5454L28.3842 29.5471L28.8182 29.7955ZM23.7727 34.7386L24.0112 35.1781L24.012 35.1777L23.7727 34.7386ZM8.26136 34.2955L7.99655 34.7196L7.99748 34.7201L8.26136 34.2955ZM2.80682 28.0909L2.35659 28.3084L2.35734 28.3099L2.80682 28.0909ZM1.97159 11.0966L1.49798 10.9363L1.49749 10.9377L1.97159 11.0966ZM5.14205 5.4375L5.51816 5.76695L5.51816 5.76695L5.14205 5.4375ZM21.2841 1.44886L21.1189 1.92081L21.123 1.92219L21.2841 1.44886ZM25.5625 3.78409L25.248 4.17281L25.2519 4.1759L25.5625 3.78409ZM28.7159 7.38068L28.2875 7.63844L28.2884 7.63999L28.7159 7.38068ZM30.4545 12V12.5H31.0573L30.9459 11.9077L30.4545 12ZM26.5662 11.8447C26.1782 10.6573 25.6644 9.58624 25.0224 8.63504L24.1935 9.19451C24.7787 10.0615 25.2536 11.0473 25.6156 12.1553L26.5662 11.8447ZM25.0263 8.64101C24.3946 7.67544 23.6351 6.8495 22.7483 6.16639L22.1381 6.95861C22.933 7.57095 23.6168 8.3132 24.1896 9.18854L25.0263 8.64101ZM22.7509 6.16841C21.8726 5.48264 20.8767 4.9616 19.7671 4.60369L19.4601 5.5554C20.4643 5.87931 21.3546 6.3469 22.1355 6.95659L22.7509 6.16841ZM19.7671 4.60369C18.6545 4.24477 17.4429 4.06818 16.1364 4.06818V5.06818C17.3526 5.06818 18.4591 5.2325 19.4601 5.5554L19.7671 4.60369ZM16.1364 4.06818C13.977 4.06818 12.0033 4.62728 10.2275 5.74757L10.7611 6.59333C12.3717 5.57726 14.1593 5.06818 16.1364 5.06818V4.06818ZM10.2275 5.74757C8.4434 6.87313 7.03829 8.52437 6.00394 10.6754L6.90515 11.1087C7.8708 9.10063 9.15887 7.60414 10.7611 6.59333L10.2275 5.74757ZM6.00394 10.6754C4.96298 12.8401 4.45455 15.47 4.45455 18.5455H5.45455C5.45455 15.5754 5.94612 13.1031 6.90515 11.1087L6.00394 10.6754ZM4.45455 18.5455C4.45455 21.6216 4.96889 24.2523 6.02195 26.4175L6.92123 25.9802C5.95157 23.9864 5.45455 21.5148 5.45455 18.5455H4.45455ZM6.02195 26.4175C7.06883 28.5701 8.49803 30.2211 10.3166 31.3457L10.8425 30.4952C9.20651 29.4835 7.89708 27.9867 6.92123 25.9802L6.02195 26.4175ZM10.3166 31.3457C12.1279 32.4659 14.1632 33.0227 16.4091 33.0227V32.0227C14.3368 32.0227 12.4857 31.5114 10.8425 30.4952L10.3166 31.3457ZM16.4091 33.0227C18.482 33.0227 20.3297 32.5804 21.9374 31.6806L21.449 30.808C20.0112 31.6127 18.3362 32.0227 16.4091 32.0227V33.0227ZM21.9385 31.68C23.5556 30.7696 24.8155 29.4849 25.712 27.8353L24.8334 27.3578C24.0254 28.8446 22.8989 29.9918 21.4479 30.8086L21.9385 31.68ZM25.7114 27.8365C26.6222 26.1708 27.0682 24.2273 27.0682 22.0227H26.0682C26.0682 24.0909 25.6505 25.8633 24.834 27.3567L25.7114 27.8365ZM26.4652 22.512L27.7606 22.7847L27.9666 21.8062L26.6712 21.5335L26.4652 22.512ZM27.8636 21.7955H17.3636V22.7955H27.8636V21.7955ZM17.8636 22.2955V18.5455H16.8636V22.2955H17.8636ZM17.3636 19.0455H30.6591V18.0455H17.3636V19.0455ZM30.1591 18.5455V22.2955H31.1591V18.5455H30.1591ZM30.1591 22.2955C30.1591 25.0979 29.5616 27.5086 28.3852 29.5454L29.2512 30.0455C30.5294 27.8323 31.1591 25.2431 31.1591 22.2955H30.1591ZM28.3842 29.5471C27.2142 31.5918 25.5998 33.1735 23.5335 34.2996L24.012 35.1777C26.2411 33.9629 27.9903 32.2491 29.2522 30.0438L28.3842 29.5471ZM23.5343 34.2992C21.4809 35.4132 19.1104 35.9773 16.4091 35.9773V36.9773C19.2532 36.9773 21.7918 36.3822 24.0112 35.1781L23.5343 34.2992ZM16.4091 35.9773C13.3998 35.9773 10.7776 35.2703 8.52525 33.8708L7.99748 34.7201C10.427 36.2297 13.2366 36.9773 16.4091 36.9773V35.9773ZM8.52618 33.8713C6.28305 32.4708 4.5257 30.4769 3.25629 27.8719L2.35734 28.3099C3.70157 31.0685 5.58059 33.2111 7.99655 34.7196L8.52618 33.8713ZM3.25704 27.8734C2.00116 25.2735 1.36364 22.1694 1.36364 18.5455H0.363636C0.363636 22.2852 1.02157 25.5447 2.35659 28.3084L3.25704 27.8734ZM1.36364 18.5455C1.36364 15.8282 1.72708 13.4002 2.44569 11.2554L1.49749 10.9377C0.738829 13.2021 0.363636 15.7399 0.363636 18.5455H1.36364ZM2.4452 11.2569C3.17687 9.09514 4.20311 7.2683 5.51816 5.76695L4.76593 5.10805C3.35371 6.72034 2.26631 8.66622 1.49798 10.9363L2.4452 11.2569ZM5.51816 5.76695C6.83482 4.26377 8.38977 3.11441 10.1863 2.31474L9.77963 1.40116C7.84887 2.26059 6.17655 3.4976 4.76593 5.10805L5.51816 5.76695ZM10.1863 2.31474C11.9799 1.51636 13.9609 1.11364 16.1364 1.11364V0.113635C13.8346 0.113635 11.7133 0.540457 9.77963 1.40116L10.1863 2.31474ZM16.1364 1.11364C17.9262 1.11364 19.5858 1.38419 21.1189 1.92079L21.4493 0.976933C19.8006 0.399898 18.0283 0.113635 16.1364 0.113635V1.11364ZM21.123 1.92219C22.6725 2.44969 24.0461 3.20036 25.248 4.17279L25.877 3.39538C24.5789 2.34509 23.1002 1.53895 21.4452 0.975537L21.123 1.92219ZM25.2519 4.1759C26.4656 5.13814 27.4771 6.2914 28.2875 7.63844L29.1443 7.12292C28.2729 5.67451 27.1821 4.43004 25.8731 3.39228L25.2519 4.1759ZM28.2884 7.63999C29.0963 8.97185 29.6554 10.4545 29.9631 12.0923L30.9459 11.9077C30.6174 10.1592 30.0174 8.56225 29.1434 7.12138L28.2884 7.63999ZM30.4545 11.5H26.0909V12.5H30.4545V11.5ZM37.3537 36H36.8537V36.5H37.3537V36ZM37.3537 9.81818V9.31818H36.8537V9.81818H37.3537ZM41.2401 9.81818H41.7401V9.31818H41.2401V9.81818ZM41.2401 13.7727H40.7401V14.2727H41.2401V13.7727ZM41.5128 13.7727V14.2727H41.8614L41.982 13.9456L41.5128 13.7727ZM44.1037 10.6193L43.8325 10.1992L43.8325 10.1992L44.1037 10.6193ZM50.4446 9.47727H50.9446V9.02478L50.4944 8.97975L50.4446 9.47727ZM50.4446 13.5682L50.3233 14.0533L50.9446 14.2086V13.5682H50.4446ZM49.5071 13.4148L49.4249 13.9081L49.438 13.91L49.5071 13.4148ZM44.581 14.0966L44.8147 14.5386L44.8165 14.5376L44.581 14.0966ZM42.2287 16.2784L41.8041 16.0143L41.8032 16.0158L42.2287 16.2784ZM41.3764 36V36.5H41.8764V36H41.3764ZM37.8537 36V9.81818H36.8537V36H37.8537ZM37.3537 10.3182H41.2401V9.31818H37.3537V10.3182ZM40.7401 9.81818V13.7727H41.7401V9.81818H40.7401ZM41.2401 14.2727H41.5128V13.2727H41.2401V14.2727ZM41.982 13.9456C42.4188 12.7599 43.2084 11.7923 44.3748 11.0394L43.8325 10.1992C42.499 11.06 41.5613 12.1946 41.0436 13.5999L41.982 13.9456ZM44.3748 11.0394C45.5396 10.2876 46.8535 9.90909 48.331 9.90909V8.90909C46.6721 8.90909 45.1678 9.33736 43.8325 10.1992L44.3748 11.0394ZM48.331 9.90909C48.6206 9.90909 48.9853 9.91467 49.4261 9.92597L49.4517 8.9263C49.0062 8.91487 48.6322 8.90909 48.331 8.90909V9.90909ZM49.4261 9.92597C49.8661 9.93725 50.1865 9.95395 50.3949 9.97479L50.4944 8.97975C50.2482 8.95514 49.8981 8.93774 49.4517 8.9263L49.4261 9.92597ZM49.9446 9.47727V13.5682H50.9446V9.47727H49.9446ZM50.5659 13.0831C50.3985 13.0413 50.0574 12.9867 49.5762 12.9196L49.438 13.91C49.9341 13.9792 50.218 14.0269 50.3233 14.0533L50.5659 13.0831ZM49.5893 12.9216C49.0822 12.8371 48.5489 12.7955 47.9901 12.7955V13.7955C48.4994 13.7955 48.9774 13.8334 49.4249 13.908L49.5893 12.9216ZM47.9901 12.7955C46.6454 12.7955 45.4264 13.0782 44.3454 13.6556L44.8165 14.5376C45.7355 14.0468 46.7893 13.7955 47.9901 13.7955V12.7955ZM44.3473 13.6546C43.2819 14.2178 42.4313 15.0059 41.8041 16.0143L42.6533 16.5425C43.1851 15.6873 43.9027 15.0208 44.8147 14.5386L44.3473 13.6546ZM41.8032 16.0158C41.1818 17.0224 40.8764 18.1661 40.8764 19.4318H41.8764C41.8764 18.3339 42.1392 17.3753 42.6542 16.541L41.8032 16.0158ZM40.8764 19.4318V36H41.8764V19.4318H40.8764ZM41.3764 35.5H37.3537V36.5H41.3764V35.5ZM58.8651 34.875L58.602 35.3002L58.6051 35.3021L58.8651 34.875ZM54.6548 30.1705L54.2046 30.388L54.2061 30.391L54.6548 30.1705ZM54.6548 16.0227L54.2042 15.8061L54.2037 15.8072L54.6548 16.0227ZM58.7798 11.2159L59.0528 11.6348L59.0535 11.6344L58.7798 11.2159ZM69.0241 10.1591L69.1859 9.68597L69.1859 9.68597L69.0241 10.1591ZM72.6548 12.375L72.3129 12.7398L72.3149 12.7417L72.6548 12.375ZM75.2628 16.3977L75.729 16.217L75.729 16.217L75.2628 16.3977ZM76.2344 24.2727V24.7727H76.7344V24.2727H76.2344ZM56.0526 24.2727H55.5526V24.7727H56.0526V24.2727ZM56.0526 20.7955V20.2955H55.5526V20.7955H56.0526ZM72.1435 20.7955V21.2955H72.6435V20.7955H72.1435ZM71.2571 16.8409L70.8099 17.0645L70.8117 17.068L71.2571 16.8409ZM68.7685 14.0966L68.5027 14.5201L68.5047 14.5213L68.7685 14.0966ZM60.8253 14.2841L61.1054 14.6982L61.1063 14.6976L60.8253 14.2841ZM58.1491 17.3523L57.7011 17.1303L57.7011 17.1303L58.1491 17.3523ZM58.2344 28.7557L57.7864 28.9778L57.7887 28.9823L58.2344 28.7557ZM61.1151 31.875L60.8631 32.3069L60.8661 32.3086L61.1151 31.875ZM68.2571 32.4886L68.4209 32.9611L68.4245 32.9598L68.2571 32.4886ZM70.4901 31.125L70.837 31.4851L70.8404 31.4818L70.4901 31.125ZM71.9389 28.8409L72.074 28.3595L71.632 28.2354L71.4708 28.6653L71.9389 28.8409ZM75.8253 29.9318L76.3028 30.08L76.4551 29.5893L75.9604 29.4504L75.8253 29.9318ZM73.7628 33.4091L74.1204 33.7585L74.1224 33.7565L73.7628 33.4091ZM70.1832 35.7273L70.3625 36.1941L70.3657 36.1928L70.1832 35.7273ZM65.3935 36.0455C62.9459 36.0455 60.8633 35.506 59.125 34.4479L58.6051 35.3021C60.5259 36.4713 62.7955 37.0455 65.3935 37.0455V36.0455ZM59.1281 34.4498C57.3938 33.3767 56.0529 31.8812 55.1036 29.9499L54.2061 30.391C55.2341 32.4824 56.7 34.1233 58.602 35.3002L59.1281 34.4498ZM55.105 29.9529C54.1663 28.0099 53.6889 25.7346 53.6889 23.1136H52.6889C52.6889 25.8563 53.1888 28.2855 54.2046 30.388L55.105 29.9529ZM53.6889 23.1136C53.6889 20.4929 54.1662 18.2052 55.106 16.2383L54.2037 15.8072C53.1889 17.9312 52.6889 20.3708 52.6889 23.1136H53.6889ZM55.1055 16.2393C56.058 14.2576 57.3746 12.7284 59.0528 11.6348L58.5069 10.797C56.6624 11.9989 55.2289 13.6742 54.2042 15.8061L55.1055 16.2393ZM59.0535 11.6344C60.7356 10.5345 62.7063 9.97727 64.9844 9.97727V8.97727C62.5352 8.97727 60.3695 9.5791 58.5062 10.7974L59.0535 11.6344ZM64.9844 9.97727C66.2913 9.97727 67.5833 10.1949 68.8624 10.6322L69.1859 9.68597C67.8059 9.21418 66.4047 8.97727 64.9844 8.97727V9.97727ZM68.8624 10.6322C70.1206 11.0624 71.2703 11.7624 72.3129 12.7398L72.9968 12.0102C71.8576 10.9422 70.5868 10.1649 69.1859 9.68597L68.8624 10.6322ZM72.3149 12.7417C73.3399 13.692 74.1708 14.9645 74.7966 16.5785L75.729 16.217C75.0593 14.49 74.1515 13.0808 72.9948 12.0083L72.3149 12.7417ZM74.7966 16.5785C75.4155 18.1745 75.7344 20.1658 75.7344 22.5682H76.7344C76.7344 20.0842 76.4056 17.9619 75.729 16.217L74.7966 16.5785ZM75.7344 22.5682V24.2727H76.7344V22.5682H75.7344ZM76.2344 23.7727H56.0526V24.7727H76.2344V23.7727ZM56.5526 24.2727V20.7955H55.5526V24.2727H56.5526ZM56.0526 21.2955H72.1435V20.2955H56.0526V21.2955ZM72.6435 20.7955C72.6435 19.25 72.3339 17.8522 71.7026 16.6138L70.8117 17.068C71.3621 18.1478 71.6435 19.3863 71.6435 20.7955H72.6435ZM71.7043 16.6173C71.0843 15.3772 70.192 14.3921 69.0323 13.6718L68.5047 14.5213C69.504 15.142 70.2708 15.9864 70.8099 17.0645L71.7043 16.6173ZM69.0343 13.6731C67.8748 12.9454 66.5182 12.5909 64.9844 12.5909V13.5909C66.3596 13.5909 67.5257 13.9069 68.5027 14.5201L69.0343 13.6731ZM64.9844 12.5909C63.2956 12.5909 61.8083 13.0115 60.5442 13.8706L61.1063 14.6976C62.1832 13.9658 63.4686 13.5909 64.9844 13.5909V12.5909ZM60.5451 13.8699C59.314 14.7028 58.3643 15.7919 57.7011 17.1303L58.5972 17.5743C59.184 16.3899 60.0184 15.4336 61.1054 14.6982L60.5451 13.8699ZM57.7011 17.1303C57.0411 18.4624 56.7116 19.8909 56.7116 21.4091H57.7116C57.7116 20.0409 58.0072 18.7648 58.5972 17.5743L57.7011 17.1303ZM56.7116 21.4091V23.7273H57.7116V21.4091H56.7116ZM56.7116 23.7273C56.7116 25.7601 57.062 27.5168 57.7864 28.9778L58.6823 28.5336C58.0432 27.2446 57.7116 25.649 57.7116 23.7273H56.7116ZM57.7887 28.9823C58.5219 30.4247 59.5465 31.5388 60.8631 32.3069L61.367 31.4431C60.2291 30.7793 59.3332 29.814 58.6801 28.5291L57.7887 28.9823ZM60.8661 32.3086C62.1798 33.0628 63.6943 33.4318 65.3935 33.4318V32.4318C63.8427 32.4318 62.5049 32.0963 61.364 31.4414L60.8661 32.3086ZM65.3935 33.4318C66.4967 33.4318 67.5078 33.2776 68.4209 32.9611L68.0933 32.0162C67.3019 32.2906 66.4039 32.4318 65.3935 32.4318V33.4318ZM68.4245 32.9598C69.3514 32.6305 70.1579 32.1395 70.837 31.485L70.1431 30.765C69.5722 31.3151 68.8901 31.7331 68.0897 32.0175L68.4245 32.9598ZM70.8404 31.4818C71.5228 30.8117 72.0434 29.9864 72.4071 29.0165L71.4708 28.6653C71.1527 29.5136 70.7073 30.211 70.1398 30.7682L70.8404 31.4818ZM71.8038 29.3223L75.6902 30.4132L75.9604 29.4504L72.074 28.3595L71.8038 29.3223ZM75.3478 29.7836C74.962 31.0265 74.3151 32.1175 73.4032 33.0617L74.1224 33.7565C75.1422 32.7006 75.8704 31.4735 76.3028 30.08L75.3478 29.7836ZM73.4051 33.0597C72.4937 33.9926 71.3622 34.7281 70.0008 35.2618L70.3657 36.1928C71.8452 35.6128 73.1001 34.8029 74.1204 33.7585L73.4051 33.0597ZM70.004 35.2605C68.6494 35.7807 67.1149 36.0455 65.3935 36.0455V37.0455C67.2175 37.0455 68.8762 36.7648 70.3625 36.194L70.004 35.2605ZM86.8026 34.875L86.5395 35.3002L86.5426 35.3021L86.8026 34.875ZM82.5923 30.1705L82.1421 30.388L82.1436 30.391L82.5923 30.1705ZM82.5923 16.0227L82.1417 15.8061L82.1412 15.8072L82.5923 16.0227ZM86.7173 11.2159L86.9903 11.6348L86.991 11.6344L86.7173 11.2159ZM96.9616 10.1591L97.1234 9.68597L97.1234 9.68597L96.9616 10.1591ZM100.592 12.375L100.25 12.7398L100.252 12.7417L100.592 12.375ZM103.2 16.3977L103.666 16.217L103.666 16.217L103.2 16.3977ZM104.172 24.2727V24.7727H104.672V24.2727H104.172ZM83.9901 24.2727H83.4901V24.7727H83.9901V24.2727ZM83.9901 20.7955V20.2955H83.4901V20.7955H83.9901ZM100.081 20.7955V21.2955H100.581V20.7955H100.081ZM99.1946 16.8409L98.7474 17.0645L98.7492 17.068L99.1946 16.8409ZM96.706 14.0966L96.4402 14.5201L96.4422 14.5213L96.706 14.0966ZM88.7628 14.2841L89.0429 14.6982L89.0438 14.6976L88.7628 14.2841ZM86.0866 17.3523L85.6386 17.1303L85.6386 17.1303L86.0866 17.3523ZM86.1719 28.7557L85.7239 28.9778L85.7262 28.9823L86.1719 28.7557ZM89.0526 31.875L88.8006 32.3069L88.8036 32.3086L89.0526 31.875ZM96.1946 32.4886L96.3584 32.9611L96.362 32.9598L96.1946 32.4886ZM98.4276 31.125L98.7745 31.4851L98.7779 31.4818L98.4276 31.125ZM99.8764 28.8409L100.012 28.3595L99.5695 28.2354L99.4083 28.6653L99.8764 28.8409ZM103.763 29.9318L104.24 30.08L104.393 29.5893L103.898 29.4504L103.763 29.9318ZM101.7 33.4091L102.058 33.7585L102.06 33.7565L101.7 33.4091ZM98.1207 35.7273L98.3 36.1941L98.3032 36.1928L98.1207 35.7273ZM93.331 36.0455C90.8834 36.0455 88.8008 35.506 87.0625 34.4479L86.5426 35.3021C88.4634 36.4713 90.733 37.0455 93.331 37.0455V36.0455ZM87.0656 34.4498C85.3313 33.3767 83.9904 31.8812 83.0411 29.9499L82.1436 30.391C83.1716 32.4824 84.6375 34.1233 86.5395 35.3002L87.0656 34.4498ZM83.0425 29.9529C82.1038 28.0099 81.6264 25.7346 81.6264 23.1136H80.6264C80.6264 25.8563 81.1263 28.2855 82.1421 30.388L83.0425 29.9529ZM81.6264 23.1136C81.6264 20.4929 82.1037 18.2052 83.0435 16.2383L82.1412 15.8072C81.1264 17.9312 80.6264 20.3708 80.6264 23.1136H81.6264ZM83.043 16.2393C83.9955 14.2576 85.3121 12.7284 86.9903 11.6348L86.4444 10.797C84.5999 11.9989 83.1664 13.6742 82.1417 15.8061L83.043 16.2393ZM86.991 11.6344C88.6731 10.5345 90.6438 9.97727 92.9219 9.97727V8.97727C90.4727 8.97727 88.307 9.5791 86.4437 10.7974L86.991 11.6344ZM92.9219 9.97727C94.2288 9.97727 95.5208 10.1949 96.7999 10.6322L97.1234 9.68597C95.7434 9.21418 94.3422 8.97727 92.9219 8.97727V9.97727ZM96.7999 10.6322C98.0581 11.0624 99.2078 11.7624 100.25 12.7398L100.934 12.0102C99.7951 10.9422 98.5243 10.1649 97.1234 9.68597L96.7999 10.6322ZM100.252 12.7417C101.277 13.692 102.108 14.9645 102.734 16.5785L103.666 16.217C102.997 14.49 102.089 13.0808 100.932 12.0083L100.252 12.7417ZM102.734 16.5785C103.353 18.1745 103.672 20.1658 103.672 22.5682H104.672C104.672 20.0842 104.343 17.9619 103.666 16.217L102.734 16.5785ZM103.672 22.5682V24.2727H104.672V22.5682H103.672ZM104.172 23.7727H83.9901V24.7727H104.172V23.7727ZM84.4901 24.2727V20.7955H83.4901V24.2727H84.4901ZM83.9901 21.2955H100.081V20.2955H83.9901V21.2955ZM100.581 20.7955C100.581 19.25 100.271 17.8522 99.6401 16.6138L98.7492 17.068C99.2996 18.1478 99.581 19.3863 99.581 20.7955H100.581ZM99.6418 16.6173C99.0218 15.3772 98.1295 14.3921 96.9698 13.6718L96.4422 14.5213C97.4415 15.142 98.2083 15.9864 98.7474 17.0645L99.6418 16.6173ZM96.9718 13.6731C95.8123 12.9454 94.4557 12.5909 92.9219 12.5909V13.5909C94.2971 13.5909 95.4632 13.9069 96.4402 14.5201L96.9718 13.6731ZM92.9219 12.5909C91.2331 12.5909 89.7458 13.0115 88.4817 13.8706L89.0438 14.6976C90.1207 13.9658 91.4061 13.5909 92.9219 13.5909V12.5909ZM88.4826 13.8699C87.2515 14.7028 86.3018 15.7919 85.6386 17.1303L86.5347 17.5743C87.1215 16.3899 87.9559 15.4336 89.0429 14.6982L88.4826 13.8699ZM85.6386 17.1303C84.9786 18.4624 84.6491 19.8909 84.6491 21.4091H85.6491C85.6491 20.0409 85.9447 18.7648 86.5347 17.5743L85.6386 17.1303ZM84.6491 21.4091V23.7273H85.6491V21.4091H84.6491ZM84.6491 23.7273C84.6491 25.7601 84.9995 27.5168 85.7239 28.9778L86.6198 28.5336C85.9807 27.2446 85.6491 25.649 85.6491 23.7273H84.6491ZM85.7262 28.9823C86.4594 30.4247 87.484 31.5388 88.8006 32.3069L89.3045 31.4431C88.1666 30.7793 87.2707 29.814 86.6176 28.5291L85.7262 28.9823ZM88.8036 32.3086C90.1173 33.0628 91.6318 33.4318 93.331 33.4318V32.4318C91.7802 32.4318 90.4424 32.0963 89.3015 31.4414L88.8036 32.3086ZM93.331 33.4318C94.4342 33.4318 95.4453 33.2776 96.3584 32.9611L96.0308 32.0162C95.2394 32.2906 94.3414 32.4318 93.331 32.4318V33.4318ZM96.362 32.9598C97.2889 32.6305 98.0954 32.1395 98.7745 31.485L98.0806 30.765C97.5097 31.3151 96.8276 31.7331 96.0272 32.0175L96.362 32.9598ZM98.7779 31.4818C99.4603 30.8117 99.9809 29.9864 100.345 29.0165L99.4083 28.6653C99.0902 29.5136 98.6448 30.211 98.0773 30.7682L98.7779 31.4818ZM99.7413 29.3223L103.628 30.4132L103.898 29.4504L100.012 28.3595L99.7413 29.3223ZM103.285 29.7836C102.9 31.0265 102.253 32.1175 101.341 33.0617L102.06 33.7565C103.08 32.7006 103.808 31.4735 104.24 30.08L103.285 29.7836ZM101.343 33.0597C100.431 33.9926 99.2997 34.7281 97.9383 35.2618L98.3032 36.1928C99.7827 35.6128 101.038 34.8029 102.058 33.7585L101.343 33.0597ZM97.9415 35.2605C96.5869 35.7807 95.0524 36.0455 93.331 36.0455V37.0455C95.155 37.0455 96.8137 36.7648 98.3 36.194L97.9415 35.2605ZM114.314 36V36.5H114.814V36H114.314ZM110.291 36H109.791V36.5H110.291V36ZM110.291 9.81818V9.31818H109.791V9.81818H110.291ZM114.178 9.81818H114.678V9.31818H114.178V9.81818ZM114.178 13.9091H113.678V14.4091H114.178V13.9091ZM114.518 13.9091V14.4091H114.838L114.972 14.1186L114.518 13.9091ZM117.314 10.7045L117.585 11.1246L117.588 11.1229L117.314 10.7045ZM126.808 10.5682L126.568 11.0069L126.571 11.0084L126.808 10.5682ZM129.911 13.8409L129.464 14.0659L129.465 14.0673L129.911 13.8409ZM131.018 36V36.5H131.518V36H131.018ZM126.996 36H126.496V36.5H126.996V36ZM125.393 14.8295L125.026 15.1684L125.027 15.1702L125.393 14.8295ZM117.553 13.9261L117.311 13.4881L117.309 13.4893L117.553 13.9261ZM115.183 16.3636L114.744 16.1252L114.744 16.1252L115.183 16.3636ZM113.814 20.25V36H114.814V20.25H113.814ZM114.314 35.5H110.291V36.5H114.314V35.5ZM110.791 36V9.81818H109.791V36H110.791ZM110.291 10.3182H114.178V9.31818H110.291V10.3182ZM113.678 9.81818V13.9091H114.678V9.81818H113.678ZM114.178 14.4091H114.518V13.4091H114.178V14.4091ZM114.972 14.1186C115.546 12.8766 116.413 11.8809 117.585 11.1246L117.043 10.2845C115.714 11.1418 114.719 12.2825 114.064 13.6996L114.972 14.1186ZM117.588 11.1229C118.734 10.3727 120.244 9.97727 122.155 9.97727V8.97727C120.111 8.97727 118.394 9.40004 117.04 10.2862L117.588 11.1229ZM122.155 9.97727C123.858 9.97727 125.324 10.3262 126.568 11.0068L127.048 10.1295C125.633 9.35566 123.997 8.97727 122.155 8.97727V9.97727ZM126.571 11.0084C127.803 11.6715 128.767 12.6831 129.464 14.0659L130.357 13.6159C129.576 12.0669 128.473 10.8967 127.045 10.1279L126.571 11.0084ZM129.465 14.0673C130.157 15.4309 130.518 17.1878 130.518 19.3636H131.518C131.518 17.085 131.141 15.16 130.356 13.6145L129.465 14.0673ZM130.518 19.3636V36H131.518V19.3636H130.518ZM131.018 35.5H126.996V36.5H131.018V35.5ZM127.496 36V19.6364H126.496V36H127.496ZM127.496 19.6364C127.496 17.4937 126.938 15.7551 125.759 14.4889L125.027 15.1702C125.985 16.1995 126.496 17.6654 126.496 19.6364H127.496ZM125.761 14.4907C124.581 13.2101 122.971 12.5909 120.996 12.5909V13.5909C122.747 13.5909 124.07 14.1308 125.026 15.1684L125.761 14.4907ZM120.996 12.5909C119.637 12.5909 118.405 12.8862 117.311 13.4881L117.794 14.3641C118.723 13.8524 119.786 13.5909 120.996 13.5909V12.5909ZM117.309 13.4893C116.221 14.0952 115.366 14.979 114.744 16.1252L115.623 16.6021C116.16 15.6119 116.884 14.8707 117.796 14.363L117.309 13.4893ZM114.744 16.1252C114.116 17.2828 113.814 18.6647 113.814 20.25H114.814C114.814 18.7899 115.092 17.5808 115.623 16.6021L114.744 16.1252ZM162.778 12L162.303 12.1553L162.416 12.5H162.778V12ZM161.295 8.91477L160.877 9.18856L160.881 9.19451L161.295 8.91477ZM159.131 6.5625L158.823 6.9566L158.826 6.95861L159.131 6.5625ZM156.301 5.07954L156.455 4.60369L156.455 4.60369L156.301 5.07954ZM143.142 10.892L143.593 11.1087L143.593 11.1087L143.142 10.892ZM143.159 26.1989L142.709 26.4175L142.709 26.4175L143.159 26.1989ZM158.381 31.2443L158.625 31.6806L158.626 31.68L158.381 31.2443ZM161.96 27.5966L161.522 27.3567L161.521 27.3578L161.96 27.5966ZM163.256 22.0227L163.359 21.5335L162.756 21.4065V22.0227H163.256ZM164.551 22.2955V22.7955L164.654 21.8062L164.551 22.2955ZM154.051 22.2955H153.551V22.7955H154.051V22.2955ZM154.051 18.5455V18.0455H153.551V18.5455H154.051ZM167.347 18.5455H167.847V18.0455H167.347V18.5455ZM165.506 29.7955L165.073 29.5454L165.072 29.5471L165.506 29.7955ZM160.46 34.7386L160.699 35.1781L160.699 35.1777L160.46 34.7386ZM144.949 34.2955L144.684 34.7196L144.685 34.7201L144.949 34.2955ZM139.494 28.0909L139.044 28.3084L139.045 28.3099L139.494 28.0909ZM138.659 11.0966L138.185 10.9363L138.185 10.9377L138.659 11.0966ZM141.83 5.4375L142.206 5.76695L142.206 5.76695L141.83 5.4375ZM157.972 1.44886L157.806 1.92081L157.81 1.92219L157.972 1.44886ZM162.25 3.78409L161.935 4.17281L161.939 4.1759L162.25 3.78409ZM165.403 7.38068L164.975 7.63844L164.976 7.63999L165.403 7.38068ZM167.142 12V12.5H167.745L167.633 11.9077L167.142 12ZM163.254 11.8447C162.866 10.6573 162.352 9.58624 161.71 8.63504L160.881 9.19451C161.466 10.0615 161.941 11.0473 162.303 12.1553L163.254 11.8447ZM161.714 8.64101C161.082 7.67544 160.323 6.8495 159.436 6.16639L158.826 6.95861C159.621 7.57095 160.304 8.3132 160.877 9.18854L161.714 8.64101ZM159.438 6.16841C158.56 5.48264 157.564 4.9616 156.455 4.60369L156.148 5.5554C157.152 5.87931 158.042 6.3469 158.823 6.95659L159.438 6.16841ZM156.455 4.60369C155.342 4.24477 154.13 4.06818 152.824 4.06818V5.06818C154.04 5.06818 155.147 5.2325 156.148 5.5554L156.455 4.60369ZM152.824 4.06818C150.665 4.06818 148.691 4.62728 146.915 5.74757L147.449 6.59333C149.059 5.57726 150.847 5.06818 152.824 5.06818V4.06818ZM146.915 5.74757C145.131 6.87313 143.726 8.52437 142.691 10.6754L143.593 11.1087C144.558 9.10063 145.846 7.60414 147.449 6.59333L146.915 5.74757ZM142.691 10.6754C141.65 12.8401 141.142 15.47 141.142 18.5455H142.142C142.142 15.5754 142.634 13.1031 143.593 11.1087L142.691 10.6754ZM141.142 18.5455C141.142 21.6216 141.656 24.2523 142.709 26.4175L143.609 25.9802C142.639 23.9864 142.142 21.5148 142.142 18.5455H141.142ZM142.709 26.4175C143.756 28.5701 145.186 30.2211 147.004 31.3457L147.53 30.4952C145.894 29.4835 144.585 27.9867 143.609 25.9802L142.709 26.4175ZM147.004 31.3457C148.815 32.4659 150.851 33.0227 153.097 33.0227V32.0227C151.024 32.0227 149.173 31.5114 147.53 30.4952L147.004 31.3457ZM153.097 33.0227C155.169 33.0227 157.017 32.5804 158.625 31.6806L158.136 30.808C156.699 31.6127 155.024 32.0227 153.097 32.0227V33.0227ZM158.626 31.68C160.243 30.7696 161.503 29.4849 162.4 27.8353L161.521 27.3578C160.713 28.8446 159.586 29.9918 158.135 30.8086L158.626 31.68ZM162.399 27.8365C163.31 26.1708 163.756 24.2273 163.756 22.0227H162.756C162.756 24.0909 162.338 25.8633 161.522 27.3567L162.399 27.8365ZM163.153 22.512L164.448 22.7847L164.654 21.8062L163.359 21.5335L163.153 22.512ZM164.551 21.7955H154.051V22.7955H164.551V21.7955ZM154.551 22.2955V18.5455H153.551V22.2955H154.551ZM154.051 19.0455H167.347V18.0455H154.051V19.0455ZM166.847 18.5455V22.2955H167.847V18.5455H166.847ZM166.847 22.2955C166.847 25.0979 166.249 27.5086 165.073 29.5454L165.939 30.0455C167.217 27.8323 167.847 25.2431 167.847 22.2955H166.847ZM165.072 29.5471C163.902 31.5918 162.287 33.1735 160.221 34.2996L160.699 35.1777C162.929 33.9629 164.678 32.2491 165.94 30.0438L165.072 29.5471ZM160.222 34.2992C158.168 35.4132 155.798 35.9773 153.097 35.9773V36.9773C155.941 36.9773 158.479 36.3822 160.699 35.1781L160.222 34.2992ZM153.097 35.9773C150.087 35.9773 147.465 35.2703 145.213 33.8708L144.685 34.7201C147.114 36.2297 149.924 36.9773 153.097 36.9773V35.9773ZM145.214 33.8713C142.971 32.4708 141.213 30.4769 139.944 27.8719L139.045 28.3099C140.389 31.0685 142.268 33.2111 144.684 34.7196L145.214 33.8713ZM139.945 27.8734C138.689 25.2735 138.051 22.1694 138.051 18.5455H137.051C137.051 22.2852 137.709 25.5447 139.044 28.3084L139.945 27.8734ZM138.051 18.5455C138.051 15.8282 138.415 13.4002 139.133 11.2554L138.185 10.9377C137.426 13.2021 137.051 15.7399 137.051 18.5455H138.051ZM139.133 11.2569C139.864 9.09514 140.891 7.2683 142.206 5.76695L141.453 5.10805C140.041 6.72034 138.954 8.66622 138.185 10.9363L139.133 11.2569ZM142.206 5.76695C143.522 4.26377 145.077 3.11441 146.874 2.31474L146.467 1.40116C144.536 2.26059 142.864 3.4976 141.453 5.10805L142.206 5.76695ZM146.874 2.31474C148.667 1.51636 150.648 1.11364 152.824 1.11364V0.113635C150.522 0.113635 148.401 0.540457 146.467 1.40116L146.874 2.31474ZM152.824 1.11364C154.614 1.11364 156.273 1.38419 157.806 1.92079L158.137 0.976933C156.488 0.399898 154.716 0.113635 152.824 0.113635V1.11364ZM157.81 1.92219C159.36 2.44969 160.734 3.20036 161.936 4.17279L162.564 3.39538C161.266 2.34509 159.788 1.53895 158.133 0.975537L157.81 1.92219ZM161.939 4.1759C163.153 5.13814 164.165 6.2914 164.975 7.63844L165.832 7.12292C164.96 5.67451 163.87 4.43004 162.561 3.39228L161.939 4.1759ZM164.976 7.63999C165.784 8.97185 166.343 10.4545 166.651 12.0923L167.633 11.9077C167.305 10.1592 166.705 8.56225 165.831 7.12138L164.976 7.63999ZM167.142 11.5H162.778V12.5H167.142V11.5ZM178.064 1.09091H178.564V0.590908H178.064V1.09091ZM178.064 36V36.5H178.564V36H178.064ZM174.041 36H173.541V36.5H174.041V36ZM174.041 1.09091V0.590908H173.541V1.09091H174.041ZM177.564 1.09091V36H178.564V1.09091H177.564ZM178.064 35.5H174.041V36.5H178.064V35.5ZM174.541 36V1.09091H173.541V36H174.541ZM174.041 1.59091H178.064V0.590908H174.041V1.59091ZM189.847 34.858L189.579 35.2801L189.58 35.2809L189.847 34.858ZM185.688 30.1364L185.238 30.3559L185.239 30.358L185.688 30.1364ZM185.688 15.9034L185.239 15.6828L185.238 15.6848L185.688 15.9034ZM189.847 11.1648L189.58 10.7418L189.579 10.7426L189.847 11.1648ZM202.273 11.1648L202.005 11.5869L202.006 11.5877L202.273 11.1648ZM206.432 15.9034L205.982 16.122L205.983 16.124L206.432 15.9034ZM206.432 30.1364L205.984 29.9148L205.983 29.9168L206.432 30.1364ZM202.273 34.858L202.006 34.435L202.005 34.4358L202.273 34.858ZM200.5 31.5511L200.189 31.1596L200.189 31.1596L200.5 31.5511ZM203.074 27.9205L203.543 28.0945L203.543 28.0945L203.074 27.9205ZM203.074 18.1534L203.543 17.9806L203.543 17.9806L203.074 18.1534ZM200.5 14.4886L200.813 14.0989L200.813 14.0989L200.5 14.4886ZM191.636 14.4886L191.323 14.0989L191.323 14.0989L191.636 14.4886ZM189.062 18.1534L188.593 17.9806L188.593 17.9806L189.062 18.1534ZM189.062 27.9205L188.594 28.0945L188.594 28.0945L189.062 27.9205ZM191.636 31.5511L191.947 31.1596L191.947 31.1596L191.636 31.5511ZM196.068 36.0455C193.787 36.0455 191.808 35.5038 190.113 34.435L189.58 35.2809C191.453 36.4621 193.622 37.0455 196.068 37.0455V36.0455ZM190.115 34.4358C188.425 33.3635 187.098 31.8618 186.136 29.9148L185.239 30.358C186.277 32.4564 187.723 34.1024 189.579 35.2801L190.115 34.4358ZM186.137 29.9168C185.188 27.9748 184.705 25.689 184.705 23.0455H183.705C183.705 25.811 184.21 28.2524 185.238 30.3559L186.137 29.9168ZM184.705 23.0455C184.705 20.3785 185.188 18.0754 186.137 16.122L185.238 15.6848C184.21 17.7996 183.705 20.2578 183.705 23.0455H184.705ZM186.136 16.124C187.099 14.1656 188.426 12.6587 190.115 11.5869L189.579 10.7426C187.722 11.9208 186.276 13.573 185.239 15.6828L186.136 16.124ZM190.113 11.5877C191.808 10.519 193.787 9.97727 196.068 9.97727V8.97727C193.622 8.97727 191.453 9.56058 189.58 10.7418L190.113 11.5877ZM196.068 9.97727C198.349 9.97727 200.322 10.519 202.005 11.5869L202.541 10.7426C200.678 9.56057 198.514 8.97727 196.068 8.97727V9.97727ZM202.006 11.5877C203.706 12.6594 205.031 14.1654 205.982 16.122L206.882 15.6848C205.855 13.5732 204.408 11.9202 202.539 10.7418L202.006 11.5877ZM205.983 16.124C206.943 18.0769 207.432 20.3793 207.432 23.0455H208.432C208.432 20.257 207.92 17.7981 206.881 15.6828L205.983 16.124ZM207.432 23.0455C207.432 25.6882 206.943 27.9733 205.984 29.9148L206.88 30.358C207.92 28.254 208.432 25.8118 208.432 23.0455H207.432ZM205.983 29.9168C205.032 31.862 203.706 33.3629 202.006 34.435L202.539 35.2809C204.407 34.103 205.854 32.4562 206.881 30.3559L205.983 29.9168ZM202.005 34.4358C200.322 35.5037 198.349 36.0455 196.068 36.0455V37.0455C198.514 37.0455 200.678 36.4622 202.541 35.2801L202.005 34.4358ZM196.068 33.4318C197.952 33.4318 199.546 32.9474 200.811 31.9427L200.189 31.1596C199.136 31.9958 197.776 32.4318 196.068 32.4318V33.4318ZM200.811 31.9427C202.047 30.9609 202.957 29.6728 203.543 28.0945L202.605 27.7464C202.077 29.1681 201.271 30.3005 200.189 31.1596L200.811 31.9427ZM203.543 28.0945C204.122 26.5338 204.409 24.8493 204.409 23.0455H203.409C203.409 24.7416 203.139 26.3071 202.605 27.7464L203.543 28.0945ZM204.409 23.0455C204.409 21.2416 204.122 19.5519 203.543 17.9806L202.605 18.3263C203.139 19.7777 203.409 21.3493 203.409 23.0455H204.409ZM203.543 17.9806C202.958 16.3914 202.049 15.0923 200.813 14.0989L200.187 14.8783C201.269 15.7486 202.077 16.8927 202.605 18.3263L203.543 17.9806ZM200.813 14.0989C199.548 13.0818 197.953 12.5909 196.068 12.5909V13.5909C197.774 13.5909 199.134 14.0318 200.187 14.8783L200.813 14.0989ZM196.068 12.5909C194.183 12.5909 192.588 13.0818 191.323 14.0989L191.95 14.8783C193.003 14.0318 194.362 13.5909 196.068 13.5909V12.5909ZM191.323 14.0989C190.087 15.0923 189.179 16.3914 188.593 17.9806L189.532 18.3263C190.06 16.8927 190.867 15.7486 191.95 14.8783L191.323 14.0989ZM188.593 17.9806C188.014 19.5519 187.727 21.2416 187.727 23.0455H188.727C188.727 21.3493 188.997 19.7777 189.532 18.3263L188.593 17.9806ZM187.727 23.0455C187.727 24.8493 188.014 26.5338 188.594 28.0945L189.531 27.7464C188.997 26.3071 188.727 24.7416 188.727 23.0455H187.727ZM188.594 28.0945C189.18 29.6728 190.089 30.9609 191.325 31.9427L191.947 31.1596C190.865 30.3005 190.059 29.1681 189.531 27.7464L188.594 28.0945ZM191.325 31.9427C192.591 32.9474 194.185 33.4318 196.068 33.4318V32.4318C194.361 32.4318 193 31.9958 191.947 31.1596L191.325 31.9427ZM219.114 36L218.635 36.1457L218.743 36.5H219.114V36ZM211.136 9.81818V9.31818H210.461L210.658 9.96391L211.136 9.81818ZM215.364 9.81818L215.845 9.68233L215.742 9.31818H215.364V9.81818ZM221.023 29.8636L220.542 29.9995L220.644 30.3636H221.023V29.8636ZM221.295 29.8636V30.3636H221.675L221.777 29.998L221.295 29.8636ZM226.886 9.81818V9.31818H226.507L226.405 9.68385L226.886 9.81818ZM231.182 9.81818L231.664 9.68495L231.562 9.31818H231.182V9.81818ZM236.705 29.7955L236.223 29.9287L236.324 30.2955H236.705V29.7955ZM236.977 29.7955V30.2955H237.355L237.458 29.9317L236.977 29.7955ZM242.636 9.81818V9.31818H242.258L242.155 9.68191L242.636 9.81818ZM246.864 9.81818L247.342 9.96391L247.539 9.31818H246.864V9.81818ZM238.886 36V36.5H239.257L239.365 36.1457L238.886 36ZM234.932 36L234.451 36.1369L234.554 36.5H234.932V36ZM229.205 15.8864L229.685 15.7494L229.582 15.3864H229.205V15.8864ZM228.795 15.8864V15.3864H228.418L228.315 15.7494L228.795 15.8864ZM223.068 36V36.5H223.446L223.549 36.1369L223.068 36ZM219.592 35.8543L211.615 9.67245L210.658 9.96391L218.635 36.1457L219.592 35.8543ZM211.136 10.3182H215.364V9.31818H211.136V10.3182ZM214.882 9.95403L220.542 29.9995L221.504 29.7278L215.845 9.68233L214.882 9.95403ZM221.023 30.3636H221.295V29.3636H221.023V30.3636ZM221.777 29.998L227.368 9.95251L226.405 9.68385L220.814 29.7293L221.777 29.998ZM226.886 10.3182H231.182V9.31818H226.886V10.3182ZM230.7 9.95141L236.223 29.9287L237.186 29.6622L231.664 9.68495L230.7 9.95141ZM236.705 30.2955H236.977V29.2955H236.705V30.2955ZM237.458 29.9317L243.117 9.95446L242.155 9.68191L236.496 29.6592L237.458 29.9317ZM242.636 10.3182H246.864V9.31818H242.636V10.3182ZM246.385 9.67245L238.408 35.8543L239.365 36.1457L247.342 9.96391L246.385 9.67245ZM238.886 35.5H234.932V36.5H238.886V35.5ZM235.413 35.8631L229.685 15.7494L228.724 16.0233L234.451 36.1369L235.413 35.8631ZM229.205 15.3864H228.795V16.3864H229.205V15.3864ZM228.315 15.7494L222.587 35.8631L223.549 36.1369L229.276 16.0233L228.315 15.7494ZM223.068 35.5H219.114V36.5H223.068V35.5Z" fill="#A6DD01"/>
</svg>
